<svg width="583" height="268" viewBox="0 0 583 268" fill="none" xmlns="http://www.w3.org/2000/svg">
<g clip-path="url(#clip0_1_2)">
<rect width="583" height="268" rx="20" fill="#8FD7FF"/>
<g filter="url(#filter0_f_1_2)">
<g filter="url(#filter1_d_1_2)">
<rect width="15.6768" height="6.29686" transform="matrix(-0.707947 -0.706266 -0.687928 0.725778 518.77 206.225)" fill="url(#paint0_linear_1_2)" shape-rendering="crispEdges"/>
</g>
<path d="M509.534 202.563C509.133 203.488 509.53 204.552 510.421 204.937C511.312 205.323 512.359 204.885 512.76 203.96C513.161 203.034 512.763 201.97 511.873 201.585C510.982 201.199 509.935 201.637 509.534 202.563Z" fill="#5A5A5A"/>
<path d="M506.426 199.949C506.51 199.864 506.61 199.822 506.726 199.825C506.842 199.827 506.992 199.876 507.176 199.972C507.428 200.112 507.645 200.18 507.829 200.176C508.012 200.17 508.178 200.092 508.325 199.943C508.475 199.791 508.555 199.622 508.566 199.435C508.575 199.248 508.514 199.067 508.382 198.891L508.682 198.587L508.481 198.377L508.179 198.683C508.006 198.546 507.824 198.489 507.632 198.511C507.44 198.532 507.25 198.637 507.062 198.827L507.311 199.086C507.44 198.956 507.573 198.883 507.709 198.869C507.845 198.855 507.965 198.902 508.068 199.009C508.175 199.121 508.228 199.235 508.229 199.352C508.23 199.468 508.18 199.576 508.079 199.678C507.986 199.773 507.881 199.817 507.766 199.812C507.651 199.804 507.502 199.752 507.319 199.656C507.136 199.557 506.979 199.496 506.847 199.472C506.716 199.446 506.596 199.45 506.488 199.486C506.378 199.521 506.275 199.587 506.178 199.685C506.024 199.842 505.945 200.016 505.943 200.207C505.94 200.397 506.012 200.587 506.159 200.777L505.897 201.042L506.097 201.251L506.359 200.985C506.543 201.144 506.735 201.22 506.936 201.213C507.136 201.205 507.327 201.109 507.509 200.925L507.258 200.664C507.131 200.793 507 200.858 506.866 200.859C506.731 200.86 506.604 200.797 506.483 200.671C506.365 200.548 506.301 200.422 506.291 200.293C506.281 200.165 506.326 200.05 506.426 199.949Z" fill="white"/>
<path d="M513.534 207.138C513.615 207.05 513.714 207.005 513.83 207.003C513.946 207 514.098 207.043 514.286 207.133C514.543 207.262 514.763 207.322 514.947 207.31C515.13 207.297 515.293 207.213 515.434 207.058C515.578 206.901 515.652 206.729 515.655 206.542C515.657 206.355 515.589 206.176 515.45 206.006L515.739 205.691L515.529 205.489L515.239 205.806C515.061 205.676 514.876 205.626 514.685 205.655C514.493 205.684 514.307 205.797 514.127 205.994L514.386 206.243C514.51 206.107 514.64 206.03 514.776 206.011C514.912 205.991 515.033 206.033 515.14 206.136C515.252 206.244 515.31 206.355 515.315 206.472C515.32 206.587 515.274 206.698 515.178 206.803C515.088 206.901 514.985 206.95 514.87 206.949C514.754 206.946 514.603 206.9 514.416 206.811C514.23 206.72 514.07 206.665 513.938 206.646C513.805 206.625 513.685 206.634 513.578 206.674C513.47 206.713 513.37 206.783 513.277 206.885C513.128 207.047 513.056 207.224 513.061 207.415C513.066 207.605 513.145 207.792 513.3 207.975L513.048 208.25L513.257 208.451L513.509 208.175C513.698 208.327 513.893 208.395 514.094 208.381C514.294 208.364 514.482 208.261 514.656 208.07L514.395 207.82C514.273 207.953 514.145 208.023 514.01 208.029C513.876 208.036 513.746 207.978 513.62 207.857C513.497 207.739 513.428 207.616 513.413 207.488C513.398 207.359 513.438 207.243 513.534 207.138Z" fill="white"/>
</g>
<g filter="url(#filter2_f_1_2)">
<g filter="url(#filter3_d_1_2)">
<rect width="15.6768" height="6.29686" transform="matrix(0.707947 -0.706266 0.687928 0.725778 65.7896 205.225)" fill="url(#paint1_linear_1_2)" shape-rendering="crispEdges"/>
</g>
<path d="M75.0261 201.563C75.427 202.488 75.0299 203.552 74.1391 203.937C73.2482 204.323 72.2011 203.885 71.8002 202.96C71.3993 202.034 71.7964 200.97 72.6872 200.585C73.5781 200.199 74.6252 200.637 75.0261 201.563Z" fill="#5A5A5A"/>
<path d="M78.1342 198.949C78.05 198.864 77.9498 198.822 77.8336 198.825C77.7182 198.827 77.5682 198.876 77.3837 198.972C77.1322 199.112 76.9147 199.18 76.7312 199.176C76.5476 199.17 76.3822 199.092 76.2349 198.943C76.0848 198.791 76.0045 198.622 75.9941 198.435C75.9845 198.248 76.0459 198.067 76.1781 197.891L75.8775 197.587L76.079 197.377L76.3809 197.683C76.5534 197.546 76.7356 197.489 76.9274 197.511C77.1201 197.532 77.3103 197.637 77.4979 197.827L77.2491 198.086C77.12 197.956 76.9874 197.883 76.851 197.869C76.7147 197.855 76.5951 197.902 76.4923 198.009C76.3851 198.121 76.3314 198.235 76.3314 198.352C76.3304 198.468 76.3802 198.576 76.4809 198.678C76.5742 198.773 76.6786 198.817 76.7939 198.812C76.9092 198.804 77.0582 198.752 77.241 198.656C77.4238 198.557 77.5809 198.496 77.7124 198.472C77.8439 198.446 77.9639 198.45 78.0722 198.486C78.1815 198.521 78.2846 198.587 78.3816 198.685C78.5363 198.842 78.6148 199.016 78.6171 199.207C78.6203 199.397 78.5481 199.587 78.4005 199.777L78.6627 200.042L78.4626 200.251L78.2004 199.985C78.0172 200.144 77.8252 200.22 77.6244 200.213C77.4236 200.205 77.2326 200.109 77.0514 199.925L77.3015 199.664C77.4287 199.793 77.5596 199.858 77.694 199.859C77.8284 199.86 77.956 199.797 78.0768 199.671C78.1949 199.548 78.2589 199.422 78.2689 199.293C78.2789 199.165 78.234 199.05 78.1342 198.949Z" fill="white"/>
<path d="M71.0256 206.138C70.9447 206.05 70.846 206.005 70.7296 206.003C70.6142 206 70.4622 206.043 70.2738 206.133C70.0167 206.262 69.7965 206.322 69.6131 206.31C69.4297 206.297 69.2673 206.213 69.1257 206.058C68.9815 205.901 68.9078 205.729 68.9047 205.542C68.9025 205.355 68.9709 205.176 69.1101 205.006L68.8212 204.691L69.031 204.489L69.3211 204.806C69.499 204.676 69.6835 204.626 69.8745 204.655C70.0665 204.684 70.2526 204.797 70.4329 204.994L70.1738 205.243C70.0499 205.107 69.9199 205.03 69.7841 205.011C69.6482 204.991 69.5268 205.033 69.4198 205.136C69.3081 205.244 69.25 205.355 69.2454 205.472C69.2399 205.587 69.2855 205.698 69.3822 205.803C69.4719 205.901 69.5745 205.95 69.6901 205.949C69.8057 205.946 69.9569 205.9 70.1435 205.811C70.3301 205.72 70.4898 205.665 70.6223 205.646C70.7549 205.625 70.8747 205.634 70.9817 205.674C71.0896 205.713 71.1902 205.783 71.2834 205.885C71.432 206.047 71.5037 206.224 71.4985 206.415C71.4943 206.605 71.4147 206.792 71.2596 206.975L71.5115 207.25L71.3032 207.451L71.0513 207.175C70.8617 207.327 70.6667 207.395 70.4661 207.381C70.2655 207.364 70.0782 207.261 69.9041 207.07L70.1646 206.82C70.2868 206.953 70.4151 207.023 70.5496 207.029C70.684 207.036 70.8142 206.978 70.9399 206.857C71.0629 206.739 71.1318 206.616 71.1468 206.488C71.1618 206.359 71.1214 206.243 71.0256 206.138Z" fill="white"/>
</g>
<g filter="url(#filter4_f_1_2)">
<g filter="url(#filter5_d_1_2)">
<rect width="18.6349" height="7.27215" transform="matrix(-0.898792 0.438376 0.438376 0.898792 479.515 158.609)" fill="url(#paint2_linear_1_2)" shape-rendering="crispEdges"/>
</g>
<path d="M471.649 167.498C472.494 168.293 473.823 168.251 474.617 167.406C475.411 166.561 475.37 165.232 474.525 164.438C473.68 163.644 472.351 163.685 471.557 164.53C470.763 165.375 470.804 166.704 471.649 167.498Z" fill="#5A5A5A"/>
<path d="M467.563 169.376C467.513 169.268 467.509 169.158 467.552 169.048C467.593 168.939 467.69 168.812 467.843 168.668C468.059 168.475 468.197 168.291 468.256 168.114C468.314 167.937 468.298 167.753 468.211 167.563C468.121 167.369 467.991 167.236 467.822 167.164C467.651 167.092 467.461 167.09 467.253 167.157L467.074 166.769L466.81 166.891L466.99 167.281C466.804 167.4 466.688 167.555 466.642 167.745C466.596 167.936 466.628 168.152 466.74 168.395L467.066 168.244C466.989 168.077 466.968 167.927 467.002 167.792C467.036 167.657 467.12 167.559 467.255 167.497C467.395 167.432 467.52 167.419 467.628 167.458C467.736 167.495 467.82 167.579 467.88 167.709C467.936 167.83 467.941 167.944 467.896 168.052C467.85 168.16 467.751 168.285 467.598 168.427C467.444 168.568 467.333 168.697 467.265 168.815C467.196 168.931 467.159 169.047 467.155 169.163C467.149 169.278 467.176 169.399 467.234 169.524C467.326 169.724 467.46 169.857 467.637 169.923C467.813 169.99 468.014 169.984 468.241 169.907L468.397 170.246L468.659 170.124L468.503 169.786C468.714 169.664 468.85 169.506 468.913 169.313C468.974 169.118 468.95 168.904 468.842 168.67L468.514 168.821C468.59 168.986 468.605 169.132 468.56 169.261C468.514 169.389 468.412 169.49 468.254 169.563C468.099 169.634 467.96 169.653 467.837 169.62C467.714 169.586 467.623 169.505 467.563 169.376Z" fill="white"/>
<path d="M478.378 164.181C478.324 164.074 478.316 163.965 478.354 163.853C478.391 163.742 478.483 163.612 478.63 163.462C478.839 163.261 478.969 163.071 479.021 162.892C479.072 162.713 479.049 162.53 478.954 162.343C478.857 162.153 478.722 162.025 478.55 161.96C478.377 161.895 478.187 161.9 477.982 161.976L477.787 161.595L477.528 161.727L477.723 162.11C477.542 162.236 477.432 162.395 477.394 162.587C477.355 162.779 477.396 162.994 477.517 163.232L477.837 163.069C477.754 162.905 477.727 162.755 477.755 162.619C477.784 162.484 477.864 162.382 477.997 162.314C478.135 162.244 478.258 162.226 478.368 162.261C478.477 162.294 478.564 162.375 478.63 162.502C478.69 162.621 478.7 162.735 478.659 162.845C478.617 162.954 478.523 163.082 478.376 163.23C478.227 163.378 478.122 163.511 478.059 163.631C477.994 163.75 477.961 163.868 477.962 163.983C477.961 164.099 477.992 164.218 478.055 164.341C478.155 164.537 478.294 164.665 478.473 164.724C478.652 164.784 478.852 164.771 479.076 164.684L479.245 165.017L479.503 164.885L479.333 164.553C479.539 164.423 479.669 164.26 479.724 164.064C479.777 163.868 479.745 163.654 479.628 163.425L479.306 163.589C479.389 163.75 479.41 163.896 479.369 164.026C479.329 164.156 479.231 164.261 479.076 164.34C478.924 164.418 478.786 164.442 478.661 164.413C478.537 164.385 478.443 164.307 478.378 164.181Z" fill="white"/>
</g>
<g filter="url(#filter6_f_1_2)">
<g filter="url(#filter7_d_1_2)">
<rect x="105.044" y="157.609" width="18.6349" height="7.27215" transform="rotate(26.0003 105.044 157.609)" fill="url(#paint3_linear_1_2)" shape-rendering="crispEdges"/>
</g>
<path d="M112.911 166.498C112.066 167.293 110.737 167.251 109.943 166.406C109.149 165.561 109.19 164.232 110.035 163.438C110.88 162.644 112.209 162.685 113.003 163.53C113.797 164.375 113.756 165.704 112.911 166.498Z" fill="#5A5A5A"/>
<path d="M116.997 168.376C117.047 168.268 117.051 168.158 117.008 168.048C116.967 167.939 116.87 167.812 116.717 167.668C116.5 167.475 116.363 167.291 116.304 167.114C116.246 166.937 116.262 166.753 116.349 166.563C116.439 166.369 116.568 166.236 116.738 166.164C116.909 166.092 117.098 166.09 117.307 166.157L117.486 165.769L117.75 165.891L117.57 166.281C117.756 166.4 117.872 166.555 117.918 166.745C117.964 166.936 117.932 167.152 117.82 167.395L117.494 167.244C117.57 167.077 117.592 166.927 117.558 166.792C117.524 166.657 117.44 166.559 117.305 166.497C117.164 166.432 117.04 166.419 116.932 166.458C116.824 166.495 116.74 166.579 116.68 166.709C116.624 166.83 116.619 166.944 116.663 167.052C116.71 167.16 116.809 167.285 116.962 167.427C117.116 167.568 117.227 167.697 117.295 167.815C117.364 167.931 117.401 168.047 117.405 168.163C117.41 168.278 117.384 168.399 117.326 168.524C117.234 168.724 117.1 168.857 116.923 168.923C116.747 168.99 116.546 168.984 116.319 168.907L116.163 169.246L115.901 169.124L116.057 168.786C115.846 168.664 115.71 168.506 115.647 168.313C115.586 168.118 115.61 167.904 115.718 167.67L116.046 167.821C115.97 167.986 115.955 168.132 116 168.261C116.046 168.389 116.148 168.49 116.306 168.563C116.461 168.634 116.6 168.653 116.723 168.62C116.846 168.586 116.937 168.505 116.997 168.376Z" fill="white"/>
<path d="M106.182 163.181C106.236 163.074 106.244 162.965 106.206 162.853C106.169 162.742 106.077 162.612 105.93 162.462C105.721 162.261 105.591 162.071 105.538 161.892C105.488 161.713 105.511 161.53 105.606 161.343C105.703 161.153 105.837 161.025 106.01 160.96C106.183 160.895 106.373 160.9 106.578 160.976L106.773 160.595L107.032 160.727L106.837 161.11C107.018 161.236 107.128 161.395 107.166 161.587C107.205 161.779 107.164 161.994 107.043 162.232L106.722 162.069C106.806 161.905 106.833 161.755 106.805 161.619C106.776 161.484 106.696 161.382 106.563 161.314C106.425 161.244 106.301 161.226 106.192 161.261C106.083 161.294 105.995 161.375 105.93 161.502C105.87 161.621 105.86 161.735 105.901 161.845C105.943 161.954 106.037 162.082 106.184 162.23C106.332 162.378 106.438 162.511 106.501 162.631C106.566 162.75 106.598 162.868 106.598 162.983C106.599 163.099 106.568 163.218 106.505 163.341C106.405 163.537 106.266 163.665 106.086 163.724C105.908 163.784 105.708 163.771 105.484 163.684L105.315 164.017L105.057 163.885L105.227 163.553C105.021 163.423 104.891 163.26 104.836 163.064C104.782 162.868 104.814 162.654 104.932 162.425L105.253 162.589C105.171 162.75 105.15 162.896 105.191 163.026C105.231 163.156 105.329 163.261 105.484 163.34C105.636 163.418 105.774 163.442 105.898 163.413C106.023 163.385 106.117 163.307 106.182 163.181Z" fill="white"/>
</g>
<g filter="url(#filter8_f_1_2)">
<g filter="url(#filter9_d_1_2)">
<rect x="514.974" y="108.295" width="30.2281" height="11.7963" transform="rotate(24.2251 514.974 108.295)" fill="url(#paint4_linear_1_2)" shape-rendering="crispEdges"/>
</g>
<path d="M528.569 122.284C527.397 123.455 525.498 123.455 524.326 122.284C523.154 121.112 523.154 119.213 524.326 118.041C525.498 116.87 527.397 116.87 528.569 118.041C529.74 119.213 529.74 121.112 528.569 122.284Z" fill="#5A5A5A"/>
<path d="M535.383 125.614C535.477 125.394 535.478 125.175 535.386 124.958C535.297 124.742 535.094 124.495 534.78 124.217C534.335 123.844 534.048 123.483 533.919 123.134C533.794 122.784 533.813 122.416 533.977 122.03C534.144 121.637 534.394 121.363 534.729 121.208C535.066 121.054 535.445 121.038 535.865 121.16L536.2 120.372L536.735 120.6L536.4 121.391C536.779 121.617 537.02 121.919 537.123 122.296C537.228 122.675 537.176 123.11 536.968 123.601L536.306 123.32C536.45 122.982 536.483 122.68 536.407 122.412C536.331 122.145 536.156 121.954 535.883 121.838C535.598 121.717 535.348 121.698 535.134 121.783C534.921 121.865 534.758 122.038 534.646 122.301C534.543 122.546 534.539 122.775 534.635 122.988C534.734 123.2 534.941 123.444 535.254 123.718C535.571 123.991 535.801 124.243 535.944 124.473C536.09 124.702 536.171 124.932 536.186 125.162C536.204 125.393 536.159 125.636 536.051 125.89C535.879 126.295 535.619 126.569 535.269 126.712C534.922 126.856 534.52 126.858 534.062 126.717L533.77 127.404L533.238 127.178L533.53 126.491C533.101 126.261 532.818 125.954 532.681 125.571C532.548 125.186 532.582 124.756 532.783 124.281L533.448 124.564C533.307 124.897 533.285 125.191 533.384 125.445C533.483 125.699 533.693 125.894 534.014 126.03C534.328 126.164 534.607 126.193 534.851 126.118C535.095 126.044 535.272 125.876 535.383 125.614Z" fill="white"/>
<path d="M517.568 117.753C517.671 117.536 517.68 117.317 517.597 117.097C517.516 116.877 517.324 116.623 517.02 116.333C516.591 115.943 516.318 115.571 516.203 115.217C516.091 114.862 516.125 114.495 516.304 114.116C516.486 113.73 516.747 113.465 517.087 113.324C517.43 113.183 517.809 113.182 518.225 113.32L518.59 112.546L519.116 112.795L518.75 113.572C519.12 113.813 519.349 114.124 519.437 114.505C519.527 114.887 519.458 115.32 519.231 115.803L518.581 115.496C518.737 115.164 518.783 114.863 518.717 114.593C518.652 114.323 518.484 114.125 518.216 113.998C517.936 113.866 517.687 113.838 517.47 113.914C517.253 113.988 517.084 114.154 516.962 114.413C516.849 114.654 516.836 114.882 516.924 115.099C517.015 115.315 517.212 115.566 517.514 115.853C517.82 116.138 518.04 116.399 518.174 116.634C518.311 116.869 518.382 117.101 518.389 117.332C518.398 117.564 518.343 117.804 518.225 118.054C518.038 118.452 517.767 118.716 517.412 118.845C517.06 118.975 516.657 118.961 516.205 118.803L515.887 119.478L515.364 119.231L515.682 118.556C515.263 118.31 514.992 117.992 514.871 117.603C514.752 117.214 514.803 116.785 515.023 116.319L515.676 116.627C515.522 116.955 515.489 117.247 515.578 117.505C515.666 117.763 515.868 117.966 516.184 118.115C516.493 118.26 516.77 118.301 517.017 118.235C517.264 118.17 517.447 118.009 517.568 117.753Z" fill="white"/>
</g>
<g filter="url(#filter10_f_1_2)">
<g filter="url(#filter11_d_1_2)">
<rect x="42" y="118.722" width="30.2281" height="11.7963" transform="rotate(-20.7749 42 118.722)" fill="url(#paint5_linear_1_2)" shape-rendering="crispEdges"/>
</g>
<path d="M61.5047 119C61.5047 120.657 60.1616 122 58.5047 122C56.8478 122 55.5047 120.657 55.5047 119C55.5047 117.343 56.8478 116 58.5047 116C60.1616 116 61.5047 117.343 61.5047 119Z" fill="#5A5A5A"/>
<path d="M68.6782 116.537C68.5885 116.315 68.4344 116.159 68.216 116.07C68 115.981 67.6824 115.949 67.2633 115.975C66.6856 116.026 66.2277 115.973 65.8896 115.818C65.553 115.659 65.3061 115.385 65.1491 114.996C64.9891 114.6 64.9726 114.229 65.0996 113.883C65.229 113.536 65.4856 113.257 65.8693 113.046L65.5489 112.252L66.0886 112.034L66.4104 112.831C66.8385 112.723 67.2224 112.766 67.562 112.96C67.9041 113.153 68.1751 113.497 68.3751 113.992L67.7086 114.262C67.5711 113.921 67.381 113.683 67.1382 113.548C66.8955 113.413 66.6365 113.401 66.3612 113.513C66.0739 113.629 65.8844 113.792 65.7928 114.003C65.7001 114.212 65.7075 114.449 65.8148 114.715C65.9142 114.961 66.0734 115.126 66.2923 115.209C66.5126 115.288 66.8306 115.314 67.2464 115.287C67.6636 115.256 68.0041 115.271 68.2679 115.333C68.5331 115.392 68.7525 115.497 68.9262 115.649C69.1022 115.8 69.2419 116.003 69.3453 116.259C69.5102 116.667 69.5197 117.045 69.3738 117.393C69.2304 117.74 68.9471 118.026 68.5237 118.251L68.8032 118.942L68.2671 119.159L67.9877 118.467C67.522 118.607 67.1051 118.591 66.737 118.416C66.3703 118.239 66.0904 117.911 65.8973 117.433L66.5673 117.162C66.7029 117.498 66.8954 117.72 67.1448 117.83C67.3942 117.94 67.6807 117.93 68.0043 117.799C68.3206 117.671 68.5386 117.495 68.6582 117.269C68.7779 117.044 68.7845 116.8 68.6782 116.537Z" fill="white"/>
<path d="M50.5224 123.574C50.4414 123.349 50.2936 123.188 50.0788 123.09C49.8665 122.992 49.5504 122.948 49.1305 122.958C48.5513 122.986 48.0958 122.916 47.7641 122.747C47.4339 122.575 47.198 122.292 47.0563 121.897C46.9119 121.495 46.91 121.124 47.0504 120.783C47.1933 120.441 47.4606 120.172 47.8523 119.976L47.5631 119.171L48.1109 118.974L48.4014 119.783C48.8334 119.692 49.2153 119.749 49.5471 119.957C49.8813 120.163 50.1386 120.518 50.3191 121.02L49.6426 121.263C49.5185 120.918 49.3378 120.673 49.1006 120.528C48.8633 120.384 48.605 120.362 48.3256 120.462C48.0339 120.567 47.8382 120.723 47.7383 120.93C47.6376 121.135 47.6356 121.372 47.7325 121.642C47.8222 121.892 47.9748 122.063 48.1903 122.154C48.4073 122.242 48.7241 122.281 49.1406 122.269C49.5588 122.255 49.8984 122.284 50.1595 122.356C50.4222 122.425 50.6374 122.538 50.8049 122.697C50.975 122.854 51.1066 123.063 51.1999 123.323C51.3486 123.737 51.3433 124.115 51.184 124.457C51.0271 124.799 50.7328 125.073 50.301 125.281L50.5531 125.983L50.009 126.179L49.7569 125.476C49.286 125.598 48.8701 125.565 48.5091 125.377C48.1497 125.185 47.8828 124.846 47.7085 124.361L48.3887 124.117C48.511 124.457 48.6946 124.687 48.9396 124.807C49.1845 124.926 49.4712 124.927 49.7996 124.809C50.1207 124.694 50.3454 124.526 50.4738 124.306C50.6021 124.085 50.6183 123.842 50.5224 123.574Z" fill="white"/>
</g>
<g filter="url(#filter12_d_1_2)">
<rect x="450.017" y="58.5045" width="43.786" height="17.0872" transform="rotate(-28.2387 450.017 58.5045)" fill="url(#paint6_linear_1_2)" shape-rendering="crispEdges"/>
</g>
<path d="M478.046 55.2069C478.416 58.0312 476.427 60.6207 473.602 60.9907C470.778 61.3607 468.188 59.3711 467.818 56.5468C467.448 53.7225 469.438 51.133 472.262 50.763C475.087 50.393 477.676 52.3826 478.046 55.2069Z" fill="#5A5A5A"/>
<path d="M486.927 49.9337C486.78 49.6729 486.564 49.5053 486.279 49.4308C485.997 49.3547 485.598 49.3668 485.083 49.4672C484.375 49.624 483.799 49.6335 483.354 49.4956C482.911 49.3533 482.561 49.054 482.303 48.5976C482.041 48.1328 481.96 47.6755 482.061 47.2259C482.165 46.7746 482.438 46.3869 482.879 46.0628L482.353 45.1318L482.987 44.774L483.515 45.7093C484.028 45.5055 484.511 45.4964 484.963 45.682C485.419 45.8659 485.81 46.2484 486.139 46.8294L485.356 47.2713C485.131 46.8717 484.856 46.6079 484.534 46.4799C484.211 46.3519 483.888 46.3792 483.565 46.5617C483.227 46.7522 483.019 46.9857 482.94 47.2623C482.859 47.5361 482.906 47.8288 483.083 48.1406C483.246 48.4297 483.47 48.6079 483.755 48.6751C484.041 48.7379 484.439 48.7185 484.95 48.6169C485.462 48.5108 485.886 48.4747 486.223 48.5087C486.562 48.5383 486.851 48.633 487.091 48.7928C487.333 48.9511 487.539 49.1805 487.709 49.4809C487.98 49.9599 488.053 50.427 487.929 50.8823C487.807 51.3359 487.502 51.7361 487.014 52.0829L487.473 52.895L486.844 53.2504L486.385 52.4384C485.831 52.6879 485.311 52.7346 484.827 52.5784C484.343 52.4177 483.943 52.0568 483.626 51.4956L484.413 51.0513C484.635 51.4453 484.91 51.6901 485.237 51.7858C485.564 51.8815 485.917 51.8221 486.297 51.6076C486.668 51.3978 486.91 51.1437 487.022 50.845C487.133 50.5464 487.102 50.2426 486.927 49.9337Z" fill="white"/>
<path d="M462.192 63.4192C462.055 63.1529 461.846 62.9769 461.564 62.8913C461.285 62.8043 460.886 62.8008 460.367 62.8809C459.654 63.0099 459.078 62.9968 458.639 62.8417C458.202 62.6821 457.864 62.3693 457.624 61.9033C457.38 61.4285 457.317 60.9684 457.436 60.5231C457.557 60.0762 457.845 59.6995 458.299 59.3929L457.81 58.442L458.457 58.1093L458.948 59.0645C459.468 58.881 459.951 58.8908 460.396 59.0939C460.844 59.2955 461.22 59.6931 461.526 60.2865L460.727 60.6974C460.517 60.2893 460.253 60.0149 459.935 59.8744C459.618 59.7339 459.294 59.7485 458.964 59.9182C458.62 60.0954 458.402 60.3206 458.312 60.5939C458.221 60.8643 458.257 61.1587 458.421 61.4771C458.572 61.7723 458.789 61.9591 459.071 62.0375C459.354 62.1114 459.753 62.1076 460.268 62.026C460.784 61.9401 461.209 61.9207 461.545 61.9678C461.881 62.0106 462.167 62.1165 462.4 62.2857C462.636 62.4533 462.833 62.6905 462.991 62.9974C463.243 63.4866 463.298 63.9562 463.156 64.4063C463.017 64.8548 462.696 65.2428 462.195 65.5702L462.621 66.3996L461.979 66.7301L461.552 65.9008C460.989 66.1285 460.468 66.1548 459.99 65.9797C459.513 65.8002 459.127 65.4239 458.832 64.8507L459.636 64.4376C459.843 64.84 460.108 65.0954 460.431 65.2038C460.754 65.3122 461.109 65.2667 461.497 65.0672C461.876 64.8721 462.127 64.6276 462.251 64.3336C462.374 64.0395 462.355 63.7348 462.192 63.4192Z" fill="white"/>
<g filter="url(#filter13_d_1_2)">
<rect x="90.2969" y="40.9819" width="43.786" height="17.0872" transform="rotate(24.2252 90.2969 40.9819)" fill="url(#paint7_linear_1_2)" shape-rendering="crispEdges"/>
</g>
<path d="M109.989 61.1986C107.974 63.2128 104.709 63.2128 102.695 61.1986C100.681 59.1845 100.681 55.9189 102.695 53.9048C104.709 51.8906 107.974 51.8906 109.989 53.9048C112.003 55.9189 112.003 59.1845 109.989 61.1986Z" fill="#5A5A5A"/>
<path d="M119.581 65.0285C119.698 64.7528 119.699 64.4793 119.585 64.2078C119.473 63.9376 119.221 63.6288 118.827 63.2813C118.271 62.8156 117.913 62.3646 117.752 61.9283C117.595 61.4903 117.618 61.0301 117.823 60.5477C118.032 60.0563 118.345 59.7137 118.764 59.5199C119.185 59.3274 119.658 59.3075 120.184 59.46L120.602 58.4757L121.272 58.76L120.852 59.7488C121.326 60.0314 121.627 60.4087 121.756 60.8806C121.887 61.3537 121.823 61.8974 121.562 62.5117L120.735 62.1605C120.914 61.7381 120.957 61.3599 120.861 61.0259C120.766 60.692 120.548 60.4525 120.206 60.3075C119.85 60.1561 119.538 60.1332 119.27 60.2389C119.004 60.3415 118.8 60.5576 118.66 60.8872C118.531 61.1928 118.526 61.479 118.646 61.7458C118.77 62.0108 119.029 62.3149 119.42 62.6581C119.817 62.9995 120.104 63.3142 120.282 63.6021C120.465 63.8883 120.566 64.1752 120.585 64.4628C120.608 64.7516 120.551 65.0549 120.416 65.3725C120.201 65.8789 119.876 66.2215 119.439 66.4004C119.005 66.5805 118.502 66.5826 117.93 66.4068L117.565 67.2652L116.9 66.9828L117.265 66.1244C116.729 65.8368 116.375 65.4533 116.204 64.9739C116.037 64.4928 116.079 63.9555 116.331 63.3623L117.163 63.7153C116.986 64.1318 116.959 64.4988 117.082 64.8164C117.206 65.134 117.468 65.378 117.87 65.5485C118.262 65.7151 118.611 65.7518 118.916 65.6584C119.221 65.5651 119.442 65.3551 119.581 65.0285Z" fill="white"/>
<path d="M93.8173 53.6305C93.9451 53.3596 93.957 53.0863 93.8531 52.8106C93.7521 52.5363 93.5118 52.2178 93.1321 51.8552C92.5953 51.3681 92.2547 50.9034 92.1106 50.4612C91.9708 50.0173 92.0126 49.5584 92.2362 49.0844C92.4639 48.6015 92.7905 48.2715 93.216 48.0942C93.6444 47.9183 94.1183 47.9169 94.6378 48.0899L95.0939 47.1227L95.7519 47.433L95.2938 48.4046C95.7565 48.7056 96.0428 49.0943 96.1528 49.5709C96.2657 50.0488 96.1799 50.5896 95.8953 51.1931L95.0826 50.8099C95.2784 50.3948 95.3353 50.0185 95.2532 49.6811C95.1712 49.3437 94.9624 49.0959 94.6267 48.9376C94.2764 48.7724 93.9654 48.7373 93.6938 48.8324C93.4236 48.9245 93.2122 49.1325 93.0595 49.4564C92.9178 49.7567 92.9019 50.0425 93.0115 50.3137C93.1254 50.5834 93.3715 50.8974 93.7496 51.2556C94.132 51.6123 94.4067 51.938 94.5737 52.2327C94.745 52.5258 94.8347 52.8164 94.8428 53.1045C94.8538 53.3941 94.7857 53.6949 94.6385 54.007C94.4039 54.5045 94.0649 54.8342 93.6216 54.9958C93.1812 55.1588 92.6785 55.1413 92.1133 54.9431L91.7155 55.7867L91.0619 55.4785L91.4596 54.6349C90.9356 54.3266 90.5974 53.9296 90.445 53.4438C90.2969 52.9565 90.3603 52.4214 90.6352 51.8384L91.4522 52.2237C91.2592 52.6329 91.2181 52.9987 91.3289 53.3208C91.4397 53.643 91.6924 53.8971 92.0869 54.0832C92.4726 54.265 92.8196 54.3153 93.1279 54.2339C93.4362 54.1526 93.666 53.9514 93.8173 53.6305Z" fill="white"/>
<path d="M66 256.278C25.2 259.078 -3 286.111 -12 299.278C145.667 301.111 458.2 303.078 447 296.278C433 287.778 416 290.778 386.5 286.778C357 282.778 351.466 247.644 312.5 249.278C259.5 251.5 248.5 232 222.5 232C197 232 160 270.778 139.5 270.778C119.196 270.778 117 252.778 66 256.278Z" fill="url(#paint8_linear_1_2)"/>
<path d="M562.293 236.278C603.093 239.078 631.293 266.111 640.293 279.278C482.626 281.111 170.093 283.078 181.293 276.278C195.293 267.778 212.293 270.778 241.793 266.778C271.293 262.778 279.793 244.278 315.793 229.278C351.793 214.278 379.935 214.113 406 219C438 225 463.5 250.778 488.793 250.778C509.097 250.778 511.293 232.778 562.293 236.278Z" fill="url(#paint9_linear_1_2)"/>
<path d="M161.293 238.278C202.093 241.078 230.293 268.111 239.293 281.278C81.6264 283.111 -230.907 285.078 -219.707 278.278C-205.707 269.778 -188.707 272.778 -159.207 268.778C-129.707 264.778 -121.207 246.278 -85.2069 231.278C-49.2069 216.278 -27 206 3.79312 216.278C28.9478 224.674 67.7931 249.278 87.7931 252.778C107.793 256.278 110.293 234.778 161.293 238.278Z" fill="url(#paint10_linear_1_2)"/>
</g>
<defs>
<filter id="filter0_f_1_2" x="499.34" y="191.153" width="23.4301" height="23.6421" filterUnits="userSpaceOnUse" color-interpolation-filters="sRGB">
<feFlood flood-opacity="0" result="BackgroundImageFix"/>
<feBlend mode="normal" in="SourceGraphic" in2="BackgroundImageFix" result="shape"/>
<feGaussianBlur stdDeviation="2" result="effect1_foregroundBlur_1_2"/>
</filter>
<filter id="filter1_d_1_2" x="499.34" y="195.153" width="23.4301" height="23.6421" filterUnits="userSpaceOnUse" color-interpolation-filters="sRGB">
<feFlood flood-opacity="0" result="BackgroundImageFix"/>
<feColorMatrix in="SourceAlpha" type="matrix" values="0 0 0 0 0 0 0 0 0 0 0 0 0 0 0 0 0 0 127 0" result="hardAlpha"/>
<feOffset dy="4"/>
<feGaussianBlur stdDeviation="2"/>
<feComposite in2="hardAlpha" operator="out"/>
<feColorMatrix type="matrix" values="0 0 0 0 0 0 0 0 0 0 0 0 0 0 0 0 0 0 0.25 0"/>
<feBlend mode="normal" in2="BackgroundImageFix" result="effect1_dropShadow_1_2"/>
<feBlend mode="normal" in="SourceGraphic" in2="effect1_dropShadow_1_2" result="shape"/>
</filter>
<filter id="filter2_f_1_2" x="61.7896" y="190.153" width="23.4301" height="23.6421" filterUnits="userSpaceOnUse" color-interpolation-filters="sRGB">
<feFlood flood-opacity="0" result="BackgroundImageFix"/>
<feBlend mode="normal" in="SourceGraphic" in2="BackgroundImageFix" result="shape"/>
<feGaussianBlur stdDeviation="2" result="effect1_foregroundBlur_1_2"/>
</filter>
<filter id="filter3_d_1_2" x="61.7896" y="194.153" width="23.4301" height="23.6421" filterUnits="userSpaceOnUse" color-interpolation-filters="sRGB">
<feFlood flood-opacity="0" result="BackgroundImageFix"/>
<feColorMatrix in="SourceAlpha" type="matrix" values="0 0 0 0 0 0 0 0 0 0 0 0 0 0 0 0 0 0 127 0" result="hardAlpha"/>
<feOffset dy="4"/>
<feGaussianBlur stdDeviation="2"/>
<feComposite in2="hardAlpha" operator="out"/>
<feColorMatrix type="matrix" values="0 0 0 0 0 0 0 0 0 0 0 0 0 0 0 0 0 0 0.25 0"/>
<feBlend mode="normal" in2="BackgroundImageFix" result="effect1_dropShadow_1_2"/>
<feBlend mode="normal" in="SourceGraphic" in2="effect1_dropShadow_1_2" result="shape"/>
</filter>
<filter id="filter4_f_1_2" x="460.767" y="156.609" width="23.9368" height="18.7052" filterUnits="userSpaceOnUse" color-interpolation-filters="sRGB">
<feFlood flood-opacity="0" result="BackgroundImageFix"/>
<feBlend mode="normal" in="SourceGraphic" in2="BackgroundImageFix" result="shape"/>
<feGaussianBlur stdDeviation="1" result="effect1_foregroundBlur_1_2"/>
</filter>
<filter id="filter5_d_1_2" x="458.767" y="158.609" width="27.9368" height="22.7052" filterUnits="userSpaceOnUse" color-interpolation-filters="sRGB">
<feFlood flood-opacity="0" result="BackgroundImageFix"/>
<feColorMatrix in="SourceAlpha" type="matrix" values="0 0 0 0 0 0 0 0 0 0 0 0 0 0 0 0 0 0 127 0" result="hardAlpha"/>
<feOffset dy="4"/>
<feGaussianBlur stdDeviation="2"/>
<feComposite in2="hardAlpha" operator="out"/>
<feColorMatrix type="matrix" values="0 0 0 0 0 0 0 0 0 0 0 0 0 0 0 0 0 0 0.25 0"/>
<feBlend mode="normal" in2="BackgroundImageFix" result="effect1_dropShadow_1_2"/>
<feBlend mode="normal" in="SourceGraphic" in2="effect1_dropShadow_1_2" result="shape"/>
</filter>
<filter id="filter6_f_1_2" x="99.8565" y="155.609" width="23.9368" height="18.7052" filterUnits="userSpaceOnUse" color-interpolation-filters="sRGB">
<feFlood flood-opacity="0" result="BackgroundImageFix"/>
<feBlend mode="normal" in="SourceGraphic" in2="BackgroundImageFix" result="shape"/>
<feGaussianBlur stdDeviation="1" result="effect1_foregroundBlur_1_2"/>
</filter>
<filter id="filter7_d_1_2" x="97.8565" y="157.609" width="27.9368" height="22.7052" filterUnits="userSpaceOnUse" color-interpolation-filters="sRGB">
<feFlood flood-opacity="0" result="BackgroundImageFix"/>
<feColorMatrix in="SourceAlpha" type="matrix" values="0 0 0 0 0 0 0 0 0 0 0 0 0 0 0 0 0 0 127 0" result="hardAlpha"/>
<feOffset dy="4"/>
<feGaussianBlur stdDeviation="2"/>
<feComposite in2="hardAlpha" operator="out"/>
<feColorMatrix type="matrix" values="0 0 0 0 0 0 0 0 0 0 0 0 0 0 0 0 0 0 0.25 0"/>
<feBlend mode="normal" in2="BackgroundImageFix" result="effect1_dropShadow_1_2"/>
<feBlend mode="normal" in="SourceGraphic" in2="effect1_dropShadow_1_2" result="shape"/>
</filter>
<filter id="filter8_f_1_2" x="509.133" y="107.295" width="34.4065" height="25.1608" filterUnits="userSpaceOnUse" color-interpolation-filters="sRGB">
<feFlood flood-opacity="0" result="BackgroundImageFix"/>
<feBlend mode="normal" in="SourceGraphic" in2="BackgroundImageFix" result="shape"/>
<feGaussianBlur stdDeviation="0.5" result="effect1_foregroundBlur_1_2"/>
</filter>
<filter id="filter9_d_1_2" x="506.133" y="108.295" width="40.4065" height="31.1608" filterUnits="userSpaceOnUse" color-interpolation-filters="sRGB">
<feFlood flood-opacity="0" result="BackgroundImageFix"/>
<feColorMatrix in="SourceAlpha" type="matrix" values="0 0 0 0 0 0 0 0 0 0 0 0 0 0 0 0 0 0 127 0" result="hardAlpha"/>
<feOffset dy="4"/>
<feGaussianBlur stdDeviation="2"/>
<feComposite in2="hardAlpha" operator="out"/>
<feColorMatrix type="matrix" values="0 0 0 0 0 0 0 0 0 0 0 0 0 0 0 0 0 0 0.25 0"/>
<feBlend mode="normal" in2="BackgroundImageFix" result="effect1_dropShadow_1_2"/>
<feBlend mode="normal" in="SourceGraphic" in2="effect1_dropShadow_1_2" result="shape"/>
</filter>
<filter id="filter10_f_1_2" x="41" y="107" width="34.4468" height="23.7511" filterUnits="userSpaceOnUse" color-interpolation-filters="sRGB">
<feFlood flood-opacity="0" result="BackgroundImageFix"/>
<feBlend mode="normal" in="SourceGraphic" in2="BackgroundImageFix" result="shape"/>
<feGaussianBlur stdDeviation="0.5" result="effect1_foregroundBlur_1_2"/>
</filter>
<filter id="filter11_d_1_2" x="38" y="108" width="40.4468" height="29.7511" filterUnits="userSpaceOnUse" color-interpolation-filters="sRGB">
<feFlood flood-opacity="0" result="BackgroundImageFix"/>
<feColorMatrix in="SourceAlpha" type="matrix" values="0 0 0 0 0 0 0 0 0 0 0 0 0 0 0 0 0 0 127 0" result="hardAlpha"/>
<feOffset dy="4"/>
<feGaussianBlur stdDeviation="2"/>
<feComposite in2="hardAlpha" operator="out"/>
<feColorMatrix type="matrix" values="0 0 0 0 0 0 0 0 0 0 0 0 0 0 0 0 0 0 0.25 0"/>
<feBlend mode="normal" in2="BackgroundImageFix" result="effect1_dropShadow_1_2"/>
<feBlend mode="normal" in="SourceGraphic" in2="effect1_dropShadow_1_2" result="shape"/>
</filter>
<filter id="filter12_d_1_2" x="446.017" y="37.7873" width="54.6595" height="43.7708" filterUnits="userSpaceOnUse" color-interpolation-filters="sRGB">
<feFlood flood-opacity="0" result="BackgroundImageFix"/>
<feColorMatrix in="SourceAlpha" type="matrix" values="0 0 0 0 0 0 0 0 0 0 0 0 0 0 0 0 0 0 127 0" result="hardAlpha"/>
<feOffset dy="4"/>
<feGaussianBlur stdDeviation="2"/>
<feComposite in2="hardAlpha" operator="out"/>
<feColorMatrix type="matrix" values="0 0 0 0 0 0 0 0 0 0 0 0 0 0 0 0 0 0 0.25 0"/>
<feBlend mode="normal" in2="BackgroundImageFix" result="effect1_dropShadow_1_2"/>
<feBlend mode="normal" in="SourceGraphic" in2="effect1_dropShadow_1_2" result="shape"/>
</filter>
<filter id="filter13_d_1_2" x="79.2856" y="40.9819" width="54.9415" height="41.549" filterUnits="userSpaceOnUse" color-interpolation-filters="sRGB">
<feFlood flood-opacity="0" result="BackgroundImageFix"/>
<feColorMatrix in="SourceAlpha" type="matrix" values="0 0 0 0 0 0 0 0 0 0 0 0 0 0 0 0 0 0 127 0" result="hardAlpha"/>
<feOffset dy="4"/>
<feGaussianBlur stdDeviation="2"/>
<feComposite in2="hardAlpha" operator="out"/>
<feColorMatrix type="matrix" values="0 0 0 0 0 0 0 0 0 0 0 0 0 0 0 0 0 0 0.25 0"/>
<feBlend mode="normal" in2="BackgroundImageFix" result="effect1_dropShadow_1_2"/>
<feBlend mode="normal" in="SourceGraphic" in2="effect1_dropShadow_1_2" result="shape"/>
</filter>
<linearGradient id="paint0_linear_1_2" x1="-0.0488991" y1="0.139744" x2="15.8222" y2="5.98941" gradientUnits="userSpaceOnUse">
<stop stop-color="#26C549"/>
<stop offset="1" stop-color="#26C549" stop-opacity="0"/>
</linearGradient>
<linearGradient id="paint1_linear_1_2" x1="-0.0488991" y1="0.139744" x2="15.8222" y2="5.98941" gradientUnits="userSpaceOnUse">
<stop stop-color="#26C549"/>
<stop offset="1" stop-color="#26C549" stop-opacity="0"/>
</linearGradient>
<linearGradient id="paint2_linear_1_2" x1="-0.058126" y1="0.161389" x2="18.6747" y2="7.2679" gradientUnits="userSpaceOnUse">
<stop stop-color="#26C549"/>
<stop offset="1" stop-color="#26C549" stop-opacity="0"/>
</linearGradient>
<linearGradient id="paint3_linear_1_2" x1="104.986" y1="157.771" x2="123.719" y2="164.877" gradientUnits="userSpaceOnUse">
<stop stop-color="#26C549"/>
<stop offset="1" stop-color="#26C549" stop-opacity="0"/>
</linearGradient>
<linearGradient id="paint4_linear_1_2" x1="514.879" y1="108.557" x2="545.266" y2="120.085" gradientUnits="userSpaceOnUse">
<stop stop-color="#26C549"/>
<stop offset="1" stop-color="#26C549" stop-opacity="0"/>
</linearGradient>
<linearGradient id="paint5_linear_1_2" x1="41.9057" y1="118.984" x2="72.2926" y2="130.511" gradientUnits="userSpaceOnUse">
<stop stop-color="#26C549"/>
<stop offset="1" stop-color="#26C549" stop-opacity="0"/>
</linearGradient>
<linearGradient id="paint6_linear_1_2" x1="493.762" y1="58.905" x2="450.044" y2="75.675" gradientUnits="userSpaceOnUse">
<stop stop-color="#26C549"/>
<stop offset="1" stop-color="#26C549" stop-opacity="0"/>
</linearGradient>
<linearGradient id="paint7_linear_1_2" x1="134.041" y1="41.3824" x2="90.3232" y2="58.1524" gradientUnits="userSpaceOnUse">
<stop stop-color="#26C549"/>
<stop offset="1" stop-color="#26C549" stop-opacity="0"/>
</linearGradient>
<linearGradient id="paint8_linear_1_2" x1="217.5" y1="240.278" x2="217.647" y2="301.027" gradientUnits="userSpaceOnUse">
<stop stop-color="white" stop-opacity="0.7"/>
<stop offset="1" stop-color="white" stop-opacity="0"/>
</linearGradient>
<linearGradient id="paint9_linear_1_2" x1="410.793" y1="220.278" x2="410.646" y2="281.027" gradientUnits="userSpaceOnUse">
<stop stop-color="white" stop-opacity="0.7"/>
<stop offset="1" stop-color="white" stop-opacity="0"/>
</linearGradient>
<linearGradient id="paint10_linear_1_2" x1="9.79306" y1="222.278" x2="9.6465" y2="283.027" gradientUnits="userSpaceOnUse">
<stop stop-color="white" stop-opacity="0.7"/>
<stop offset="1" stop-color="white" stop-opacity="0"/>
</linearGradient>
<clipPath id="clip0_1_2">
<rect width="583" height="268" rx="20" fill="white"/>
</clipPath>
</defs>
</svg>
