<?xml version="1.0" standalone="no"?>
<!DOCTYPE svg PUBLIC "-//W3C//DTD SVG 20010904//EN"
 "http://www.w3.org/TR/2001/REC-SVG-20010904/DTD/svg10.dtd">
<svg version="1.0" xmlns="http://www.w3.org/2000/svg"
 width="500.000000pt" height="500.000000pt" viewBox="0 0 500.000000 500.000000"
 preserveAspectRatio="xMidYMid meet">
<metadata>
Created by potrace 1.16, written by Peter Selinger 2001-2019
</metadata>
<g transform="translate(0.000000,500.000000) scale(0.100000,-0.100000)"
fill="#000000" stroke="none">
<path d="M2715 3943 c-11 -10 -38 -31 -60 -47 -22 -16 -58 -45 -80 -64 -70
-61 -305 -293 -305 -302 0 -5 -11 -17 -25 -28 -13 -11 -22 -21 -20 -24 3 -3
-16 -25 -42 -50 -27 -25 -82 -83 -123 -128 -41 -46 -93 -102 -115 -125 -22
-23 -63 -67 -92 -97 l-51 -55 5 74 c4 50 2 73 -5 73 -6 0 -13 26 -15 63 -2 34
-4 -8 -5 -93 -1 -106 -6 -160 -14 -168 -17 -17 -26 -15 -31 6 -3 11 -5 7 -6
-10 -1 -34 -18 -45 -24 -16 -3 16 -5 11 -6 -12 -1 -43 -26 -81 -46 -74 -11 5
-13 17 -8 52 5 39 4 44 -10 39 -9 -3 -18 -1 -21 6 -3 7 -3 1 1 -13 3 -14 5
-29 4 -35 -1 -5 -5 -44 -7 -85 -6 -77 -20 -112 -30 -73 -8 28 -29 20 -43 -16
-9 -19 -23 -30 -51 -37 -34 -10 -39 -9 -49 10 -10 20 -11 20 -8 1 1 -16 -4
-20 -25 -20 -14 1 -25 -2 -22 -6 8 -13 -28 -19 -42 -8 -12 9 -13 9 -8 -4 5
-13 -4 -17 -45 -23 -27 -3 -49 -11 -48 -17 5 -26 -37 -17 -72 15 l-36 33 29
-32 c26 -29 27 -33 12 -39 -10 -4 -22 -2 -29 5 -6 6 -17 11 -25 11 -7 0 -34
14 -60 31 l-47 32 45 -47 c24 -25 40 -46 35 -47 -6 0 -1 -4 9 -8 15 -6 -12
-20 -112 -60 l-132 -53 -1 -47 c-1 -25 0 -126 1 -225 1 -140 -1 -181 -12 -187
-10 -7 -10 -9 0 -9 8 0 12 -17 12 -50 0 -45 -3 -52 -26 -61 -15 -5 -24 -12
-21 -15 3 -3 15 -1 26 6 12 6 22 7 22 3 1 -4 0 -106 -1 -225 -1 -158 1 -218 9
-218 7 0 28 8 49 19 20 10 52 22 70 26 l34 7 -7 -49 c-3 -26 -8 -63 -11 -81
l-5 -33 21 21 c26 26 42 22 51 -11 3 -13 4 15 1 63 -5 85 4 118 29 118 5 0 10
-78 11 -172 3 -165 4 -173 23 -173 19 0 20 8 25 183 5 190 9 206 50 199 13 -2
16 -38 20 -227 3 -124 9 -232 13 -241 6 -11 20 -17 43 -16 20 1 39 -5 44 -12
4 -8 13 -10 20 -6 9 6 11 4 5 -5 -6 -10 -4 -12 8 -7 10 4 17 2 17 -4 0 -11
-14 -9 -55 6 -14 6 -17 5 -10 -3 24 -26 59 -23 94 8 18 16 54 40 80 52 25 13
49 27 53 33 4 5 8 134 8 286 l0 276 103 32 c56 18 112 37 125 42 13 5 28 7 33
4 5 -4 10 -63 11 -133 l2 -127 5 105 c6 99 7 103 19 71 17 -48 17 -739 -1
-779 -10 -22 -13 18 -17 233 l-6 260 -2 -262 c-2 -220 0 -263 12 -263 32 0 36
60 36 496 l0 434 28 5 c71 15 65 19 58 -41 -3 -31 -13 -69 -21 -84 -22 -43
-18 -48 8 -9 28 42 61 48 93 18 31 -29 30 -47 -6 -97 -33 -46 -41 -49 -85 -27
l-30 15 27 -23 28 -23 3 -299 2 -300 3 302 c2 259 4 302 16 297 8 -3 17 -11
19 -17 2 -7 3 0 1 15 -2 15 3 32 12 39 19 16 44 63 44 84 0 9 -12 29 -27 44
-25 25 -28 35 -28 97 0 66 2 71 38 109 20 21 37 43 37 47 0 19 41 6 49 -14 5
-13 18 -31 29 -40 20 -16 20 -26 18 -330 -3 -293 4 -480 19 -528 3 -11 13 -20
20 -20 62 0 333 229 451 382 34 43 48 55 64 51 11 -3 32 -2 47 2 25 7 26 8 8
14 -15 6 -8 13 40 35 61 28 156 56 185 55 8 0 -4 -8 -27 -17 -56 -23 -66 -35
-20 -27 30 6 36 5 32 -7 -7 -17 -72 -48 -101 -48 -10 0 -30 -7 -44 -14 -75
-42 -151 -76 -168 -76 -29 0 -59 -37 -46 -58 16 -25 39 -26 61 -4 10 11 34 23
53 27 78 16 132 38 139 58 5 14 10 17 15 9 12 -19 50 -14 64 9 16 25 75 51 98
42 13 -5 15 -2 9 15 -3 13 -2 22 4 22 5 0 13 -9 16 -21 6 -19 8 -19 25 -4 9 9
49 25 87 36 39 10 99 31 134 45 35 14 88 32 118 40 30 8 61 24 68 34 8 11 25
20 37 20 13 0 30 7 37 16 11 14 10 18 -6 31 -25 18 -33 16 -180 -42 -221 -87
-332 -121 -345 -108 -9 8 41 43 63 43 11 0 28 6 36 14 16 15 116 54 161 63 14
3 30 10 36 15 6 4 42 19 80 32 106 37 134 50 134 59 0 4 5 5 10 2 12 -7 12
-16 16 279 2 131 5 240 6 242 2 1 35 -26 74 -61 39 -35 75 -61 79 -57 3 4 5 0
3 -8 -2 -8 3 -14 10 -12 8 1 11 -2 8 -7 -6 -9 121 -126 138 -126 6 0 12 8 14
17 2 12 -43 65 -130 154 -73 74 -136 147 -140 160 -4 14 -12 32 -19 40 -19 23
-3 28 23 8 16 -14 22 -27 20 -47 -3 -24 7 -39 55 -85 150 -147 215 -194 236
-173 7 7 -32 52 -128 146 -75 75 -135 139 -132 142 6 6 74 -45 97 -72 7 -8 17
-15 23 -15 6 0 -2 14 -18 30 -16 17 -23 30 -17 30 7 0 12 -5 12 -10 0 -6 6 -9
13 -8 6 2 11 -3 9 -9 -1 -7 3 -13 9 -13 6 0 8 -9 4 -21 -6 -18 -4 -20 14 -14
13 4 21 2 21 -5 0 -6 -4 -8 -10 -5 -26 16 -5 -11 37 -48 25 -23 59 -54 76 -69
31 -30 67 -37 67 -14 0 7 -67 78 -150 157 -119 114 -146 145 -134 152 12 7 27
-1 57 -29 23 -22 44 -41 47 -44 51 -48 63 -52 20 -7 -30 31 -49 57 -42 57 8 0
10 5 6 12 -13 21 49 -29 96 -76 24 -25 48 -46 52 -46 4 0 -31 37 -77 81 -69
67 -83 84 -73 96 10 12 20 5 63 -39 62 -63 211 -198 219 -198 3 0 -43 45 -103
100 -107 98 -140 142 -100 135 29 -6 23 11 -16 42 -38 30 -46 73 -24 116 28
53 66 50 118 -9 46 -52 31 -51 186 -11 49 14 91 30 93 36 2 6 -8 27 -22 46
-14 18 -43 66 -64 107 -21 40 -47 87 -57 105 -20 32 -20 33 -1 65 11 18 22 35
25 38 18 16 47 91 50 130 1 25 10 53 18 63 9 9 12 17 6 17 -7 0 -8 34 -5 94 4
74 1 104 -12 137 -41 102 -102 145 -195 136 -46 -4 -194 -52 -296 -97 -11 -5
-40 -16 -65 -24 -25 -8 -103 -36 -175 -61 -71 -26 -141 -51 -155 -55 -14 -4
-33 -11 -42 -15 -13 -5 -18 -2 -18 11 0 15 -3 14 -13 -6 -9 -18 -21 -25 -44
-26 l-32 -2 -4 152 -3 151 -2 -155 c-2 -149 -8 -180 -34 -180 -4 0 -9 33 -10
73 l-2 72 -3 -67 c-3 -45 -8 -68 -16 -68 -7 0 -18 -9 -25 -20 -7 -11 -16 -20
-21 -20 -13 0 -28 57 -30 112 0 26 -7 64 -16 84 -11 26 -12 41 -5 55 16 29 -4
59 -41 59 -27 0 -29 2 -19 21 7 11 9 23 7 26 -3 2 -8 -5 -12 -16 -3 -12 -14
-21 -23 -22 -14 0 -14 -2 2 -8 17 -7 16 -8 -7 -24 -15 -9 -30 -17 -35 -17 -4
0 -13 -5 -20 -12 -19 -19 -103 -38 -107 -24 -2 6 -6 88 -10 181 -9 254 -17
287 -60 248z m9 -290 c-2 -137 -7 -307 -10 -380 -5 -118 -8 -132 -25 -136 -18
-5 -19 2 -14 171 3 98 7 230 10 295 3 64 2 117 -1 117 -6 0 -38 -34 -193 -204
-36 -39 -90 -98 -120 -132 -168 -182 -244 -267 -302 -334 -102 -119 -211 -226
-216 -213 -7 19 2 30 147 188 74 82 140 153 145 159 6 6 48 54 94 106 46 52
123 136 170 186 218 231 284 308 279 331 -3 14 -24 -2 -94 -72 -49 -49 -118
-121 -153 -160 -35 -38 -101 -108 -145 -155 -99 -104 -269 -289 -322 -350 -21
-25 -46 -52 -54 -60 -8 -8 -41 -45 -74 -83 -32 -37 -77 -80 -100 -96 -40 -27
-76 -44 -76 -36 0 2 62 66 138 142 75 77 155 159 176 184 22 24 67 73 100 109
34 36 80 86 102 112 149 171 523 558 538 558 3 0 3 -111 0 -247z m1386 -118
c55 -28 60 -46 60 -206 l0 -146 -39 -59 c-21 -32 -50 -70 -65 -83 -14 -14 -26
-29 -26 -34 0 -17 82 -172 116 -218 19 -26 34 -49 34 -52 0 -8 -107 -47 -128
-47 -9 0 -24 10 -32 23 -8 13 -53 81 -100 151 -75 114 -85 126 -97 110 -12
-16 -16 -87 -18 -332 l0 -44 -59 -24 c-33 -13 -65 -24 -71 -24 -9 0 -13 82
-14 324 l-2 323 71 27 c39 14 73 26 76 26 2 0 4 -31 4 -70 0 -38 4 -70 8 -70
13 0 147 46 170 59 17 9 21 25 27 107 5 57 4 99 -2 105 -6 6 -43 -4 -99 -27
-49 -20 -124 -49 -166 -65 l-78 -28 0 79 0 79 33 10 c41 12 206 72 272 99 61
25 87 27 125 7z m-1618 -164 c-22 -20 -50 -52 -62 -71 l-22 -35 26 28 c14 15
35 27 47 27 18 0 12 -10 -39 -67 -33 -38 -83 -92 -111 -122 -28 -29 -51 -57
-51 -62 0 -5 -7 -9 -15 -9 -22 0 -19 14 11 52 14 18 2 8 -28 -23 -30 -31 -74
-82 -99 -114 -30 -40 -57 -64 -86 -76 -36 -15 -43 -16 -43 -4 0 13 146 187
247 295 41 43 59 76 28 50 -10 -9 -15 -9 -15 -1 0 10 13 15 32 12 4 0 53 48
110 108 101 107 103 108 106 78 3 -25 -4 -37 -36 -66z m1124 3 c-3 -9 -6 -42
-6 -75 0 -69 28 -52 -248 -153 -101 -37 -186 -65 -189 -62 -3 3 -2 38 3 78 l9
73 130 48 c72 27 162 61 200 77 82 33 110 37 101 14z m-1008 -72 c3 -62 -1
-69 -28 -52 -12 7 -12 12 0 34 7 14 10 29 7 33 -9 9 -59 -39 -110 -107 -36
-48 -132 -164 -163 -196 -16 -18 -94 -56 -94 -46 0 4 8 17 18 28 9 10 31 39
47 63 17 24 80 94 141 155 144 144 157 155 169 152 6 -1 11 -30 13 -64z m521
-109 c-6 -16 -23 -50 -39 -78 -15 -27 -49 -90 -75 -140 -26 -49 -56 -103 -65
-120 -41 -70 -70 -126 -70 -134 0 -11 106 -173 182 -278 33 -45 57 -86 54 -91
-3 -5 -37 -19 -76 -33 l-71 -24 -19 25 c-11 14 -54 76 -95 138 -42 61 -80 112
-84 112 -5 0 -10 -78 -11 -172 0 -95 -4 -176 -8 -180 -4 -3 -33 -15 -64 -26
l-58 -20 0 209 c0 133 4 209 10 209 6 0 10 9 10 20 0 11 -4 20 -10 20 -6 0
-10 76 -10 208 l0 208 63 21 c45 15 64 18 69 9 4 -6 8 -69 8 -140 0 -89 3
-127 10 -120 6 6 35 57 64 115 126 246 110 225 200 258 45 17 84 30 88 30 4 1
3 -11 -3 -26z m190 -215 c0 -21 4 -38 9 -38 7 0 36 10 171 59 46 17 86 31 88
31 1 0 3 -34 3 -75 l0 -74 -51 -18 c-28 -10 -90 -34 -138 -53 l-86 -35 -3 -71
-3 -71 -62 -21 c-34 -12 -65 -22 -69 -22 -5 0 -8 42 -8 93 0 105 -4 99 93 128
41 12 47 17 47 41 0 34 -12 35 -75 8 -26 -11 -51 -20 -56 -20 -6 0 -9 36 -7
86 l3 86 65 27 65 28 6 -26 c4 -14 7 -43 8 -63z m-788 -37 l29 -29 0 -152 0
-151 -47 -20 c-27 -11 -60 -23 -75 -26 l-28 -5 0 126 c0 69 -3 126 -7 126 -5
-1 -53 -18 -108 -39 l-100 -38 -3 -126 c-2 -110 -5 -128 -21 -136 -25 -14
-104 -41 -118 -41 -17 0 -18 257 -1 312 20 68 81 120 184 158 49 18 112 41
139 51 76 28 121 25 156 -10z m-575 -202 c24 -23 24 -24 22 -182 l-3 -159 -45
-18 c-25 -9 -55 -21 -67 -24 l-23 -7 0 130 c0 98 -3 131 -12 131 -16 0 -169
-60 -185 -73 -9 -7 -13 -47 -13 -137 l0 -128 -67 -25 c-38 -14 -71 -23 -75
-20 -13 7 3 315 18 348 32 69 64 93 179 134 61 21 121 44 135 50 39 17 107 7
136 -20z m1654 -137 l0 -78 -122 -43 c-196 -69 -282 -99 -300 -106 -16 -6 -18
1 -18 72 l0 79 53 21 c28 11 110 40 180 63 70 23 142 48 160 55 18 8 35 14 40
15 4 0 7 -35 7 -78z m-2219 -61 l29 -29 0 -129 -1 -128 -34 -50 c-33 -47 -36
-65 -13 -65 6 0 20 -7 30 -17 16 -14 18 -33 18 -153 0 -136 0 -137 -31 -184
-41 -62 -77 -87 -174 -121 -44 -15 -124 -45 -178 -67 -53 -21 -100 -38 -102
-38 -3 0 -5 148 -5 329 l0 329 65 26 c36 14 67 26 70 26 3 0 5 -29 5 -65 0
-36 3 -65 8 -65 18 0 150 52 172 69 23 17 25 25 28 110 1 50 -1 91 -6 91 -5 0
-49 -16 -98 -36 -95 -39 -222 -84 -236 -84 -13 0 -10 136 5 147 6 5 53 24 102
43 278 104 299 108 346 61z m1169 -136 c0 -167 -6 -186 -71 -258 -39 -43 -57
-53 -169 -94 -184 -67 -225 -69 -260 -10 -17 28 -20 51 -20 179 l0 147 53 19
c28 11 62 23 75 26 l22 7 0 -130 0 -130 108 37 107 37 5 134 5 133 65 23 c36
12 68 23 73 24 4 0 7 -64 7 -144z m884 -37 c-10 -13 -48 -55 -84 -93 -36 -39
-108 -117 -160 -175 -52 -57 -125 -136 -161 -174 -36 -39 -90 -98 -119 -131
-52 -58 -134 -149 -333 -365 -53 -58 -134 -148 -179 -201 -46 -53 -99 -108
-119 -122 l-36 -26 -7 91 c-3 50 -6 243 -6 428 0 281 2 339 14 343 9 4 16 -3
20 -16 3 -12 6 -163 6 -334 0 -181 4 -313 9 -313 5 0 42 37 81 83 40 45 100
111 134 147 34 36 126 137 205 225 228 253 254 282 394 430 114 121 172 173
183 162 3 -3 -107 -123 -330 -361 -61 -66 -127 -138 -146 -160 -38 -44 -213
-238 -245 -272 -11 -12 -58 -63 -105 -115 -47 -51 -103 -114 -126 -139 -23
-25 -46 -54 -52 -66 -17 -32 -22 -74 -10 -74 14 0 131 121 251 260 50 58 98
112 107 120 8 8 49 53 90 100 89 102 164 183 284 310 50 52 125 133 167 180
135 150 265 280 279 280 9 0 8 -6 -6 -22z m-1464 -170 c0 -164 -11 -199 -76
-262 -50 -47 -244 -127 -317 -129 -41 -2 -52 2 -72 25 -20 24 -23 40 -30 178
-4 83 -5 153 -3 156 4 3 139 54 145 54 2 0 3 -56 3 -125 0 -69 3 -125 8 -125
4 0 50 15 102 33 l95 33 3 131 3 131 57 20 c31 11 63 21 70 21 9 1 12 -34 12
-141z m1050 1 c0 6 5 11 11 11 13 0 -26 -50 -122 -156 -41 -44 -103 -114 -139
-154 -76 -88 -165 -187 -191 -215 -19 -19 -19 -19 -19 22 0 35 7 49 56 104 32
35 75 84 96 108 22 25 46 53 53 64 8 11 20 17 28 14 15 -6 37 10 37 26 0 5 -8
3 -17 -4 -17 -13 -17 -13 -3 6 27 37 73 74 83 68 6 -3 7 -1 3 5 -3 6 6 20 20
31 15 12 24 21 20 21 -4 0 -1 7 8 15 17 18 30 20 20 3 -4 -7 -3 -8 4 -4 6 4 8
14 5 23 -4 11 -3 14 5 9 7 -4 12 -2 12 5 0 8 4 8 15 -1 10 -9 15 -9 15 -1z
m-672 -500 c2 -222 0 -268 -13 -284 -13 -18 -14 11 -15 268 0 227 3 288 13
285 9 -4 13 -68 15 -269z m576 -11 c8 -31 7 -91 -2 -104 -4 -7 -36 -21 -70
-33 -35 -11 -79 -30 -98 -42 -32 -19 -34 -20 -34 -2 0 41 71 139 130 179 43
30 66 30 74 2z"/>
<path d="M1153 2007 l-83 -31 0 -107 0 -107 93 35 c50 19 98 40 105 45 9 8 12
37 10 102 -4 109 -3 109 -125 63z"/>
</g>
</svg>
